<svg version="1.1" viewBox="0.0 0.0 960.0 540.0" fill="none" stroke="none" stroke-linecap="square" stroke-miterlimit="10" xmlns:xlink="http://www.w3.org/1999/xlink" xmlns="http://www.w3.org/2000/svg"><clipPath id="g34a76331e5a_0_17.0"><path d="m0 0l960.0 0l0 540.0l-960.0 0l0 -540.0z" clip-rule="nonzero"/></clipPath><g clip-path="url(#g34a76331e5a_0_17.0)"><path fill="#ffffff" d="m0 0l960.0 0l0 540.0l-960.0 0z" fill-rule="evenodd"/><path fill="#000000" fill-opacity="0.0" d="m32.97638 64.42388l894.04724 0l0 190.14172l-894.04724 0z" fill-rule="evenodd"/><path fill="#6aa84f" d="m97.98935 216.22601q-12.265625 0 -18.5625 -6.96875q-6.28125 -6.984375 -6.28125 -20.015625l0 -6.125l15.9375 0l0 7.359375q0 10.421875 8.75 10.421875q4.296875 0 6.515625 -2.53125q2.21875 -2.53125 2.21875 -8.203125q0 -6.75 -3.0625 -11.875q-3.0625 -5.140625 -11.34375 -12.359375q-10.4375 -9.1875 -14.578125 -16.625q-4.125 -7.4375 -4.125 -16.796875q0 -12.718758 6.4375 -19.687508q6.4375 -6.984375 18.703125 -6.984375q12.109375 0 18.3125 6.984375q6.21875 6.96875 6.21875 20.000008l0 4.4375l-15.953125 0l0 -5.515625q0 -5.5156326 -2.140625 -8.046883q-2.140625 -2.53125 -6.28125 -2.53125q-8.4375 0 -8.4375 10.281258q0 5.8125 3.140625 10.875q3.140625 5.0625 11.421875 12.265625q10.578125 9.203125 14.5625 16.71875q4.0 7.515625 4.0 17.625q0 13.1875 -6.53125 20.25q-6.515625 7.046875 -18.921875 7.046875zm48.288086 -93.53126l-17.625 0l0 -15.328125l52.125 0l0 15.328125l-17.625 0l0 92.00001l-16.875 0l0 -92.00001zm48.601883 -15.328125l22.859375 0l17.46875 107.32813l-16.859375 0l-3.0625 -21.3125l0 0.3125l-19.171875 0l-3.0625 21.0l-15.640625 0l17.46875 -107.32813zm18.40625 71.75001l-7.515625 -53.046883l-0.296875 0l-7.359375 53.046883l15.171875 0zm30.047104 -71.75001l25.0 0q13.03125 0 19.0 6.0625q5.984375 6.046875 5.984375 18.625008l0 6.59375q0 16.703125 -11.03125 21.15625l0 0.3125q6.125 1.828125 8.65625 7.5q2.53125 5.671875 2.53125 15.1875l0 18.859375q0 4.59375 0.296875 7.4375q0.3125 2.828125 1.546875 5.59375l-17.171875 0q-0.921875 -2.609375 -1.234375 -4.90625q-0.296875 -2.296875 -0.296875 -8.28125l0 -19.625q0 -7.359375 -2.375 -10.265625q-2.375 -2.921875 -8.203125 -2.921875l-5.828125 0l0 46.0l-16.875 0l0 -107.32813zm23.0 46.000008q5.0625 0 7.59375 -2.609375q2.53125 -2.609375 2.53125 -8.734375l0 -8.28125q0 -5.8281326 -2.078125 -8.437508q-2.0625 -2.609375 -6.515625 -2.609375l-7.65625 0l0 30.671883l6.125 0zm51.67209 -30.671883l-17.625 0l0 -15.328125l52.125 0l0 15.328125l-17.625 0l0 92.00001l-16.875 0l0 -92.00001zm67.15646 -15.328125l25.765625 0q12.578125 0 18.859375 6.75q6.28125 6.734375 6.28125 19.781258l0 54.265625q0 13.03125 -6.28125 19.78125q-6.28125 6.75 -18.859375 6.75l-25.765625 0l0 -107.32813zm25.453125 92.00001q4.140625 0 6.359375 -2.453125q2.234375 -2.453125 2.234375 -7.984375l0 -55.8125q0 -5.5156326 -2.234375 -7.9687576q-2.21875 -2.453125 -6.359375 -2.453125l-8.578125 0l0 76.67188l8.578125 0zm61.18872 16.859375q-12.421875 0 -19.015625 -7.046875q-6.59375 -7.0625 -6.59375 -19.9375l0 -56.421875q0 -12.875008 6.59375 -19.921883q6.59375 -7.0625 19.015625 -7.0625q12.40625 0 19.0 7.0625q6.59375 7.046875 6.59375 19.921883l0 56.421875q0 12.875 -6.59375 19.9375q-6.59375 7.046875 -19.0 7.046875zm0 -15.328125q8.734375 0 8.734375 -10.578125l0 -58.578125q0 -10.578133 -8.734375 -10.578133q-8.75 0 -8.75 10.578133l0 58.578125q0 10.578125 8.75 10.578125zm32.95627 -93.53126l16.25 0l7.515625 82.48438l0.3125 0l7.96875 -82.48438l18.40625 0l7.96875 82.48438l0.3125 0l7.5 -82.48438l14.578125 0l-10.890625 107.32813l-21.0 0l-7.671875 -72.375l-0.3125 0l-7.65625 72.375l-22.390625 0l-10.890625 -107.32813zm89.38818 0l21.171875 0l16.40625 64.25001l0.296875 0l0 -64.25001l15.03125 0l0 107.32813l-17.328125 0l-20.234375 -78.34375l-0.3125 0l0 78.34375l-15.03125 0l0 -107.32813zm65.47107 0l16.875 0l0 92.00001l27.75 0l0 15.328125l-44.625 0l0 -107.32813zm76.52222 108.85938q-12.421875 0 -19.015625 -7.046875q-6.59375 -7.0625 -6.59375 -19.9375l0 -56.421875q0 -12.875008 6.59375 -19.921883q6.59375 -7.0625 19.015625 -7.0625q12.40625 0 19.0 7.0625q6.59375 7.046875 6.59375 19.921883l0 56.421875q0 12.875 -6.59375 19.9375q-6.59375 7.046875 -19.0 7.046875zm0 -15.328125q8.734375 0 8.734375 -10.578125l0 -58.578125q0 -10.578133 -8.734375 -10.578133q-8.75 0 -8.75 10.578133l0 58.578125q0 10.578125 8.75 10.578125zm49.665283 -93.53126l22.859375 0l17.46875 107.32813l-16.859375 0l-3.0625 -21.3125l0 0.3125l-19.171875 0l-3.0625 21.0l-15.640625 0l17.46875 -107.32813zm18.40625 71.75001l-7.515625 -53.046883l-0.296875 0l-7.359375 53.046883l15.171875 0zm30.04712 -71.75001l25.765625 0q12.578125 0 18.859375 6.75q6.28125 6.734375 6.28125 19.781258l0 54.265625q0 13.03125 -6.28125 19.78125q-6.28125 6.75 -18.859375 6.75l-25.765625 0l0 -107.32813zm25.453125 92.00001q4.140625 0 6.359375 -2.453125q2.234375 -2.453125 2.234375 -7.984375l0 -55.8125q0 -5.5156326 -2.234375 -7.9687576q-2.21875 -2.453125 -6.359375 -2.453125l-8.578125 0l0 76.67188l8.578125 0z" fill-rule="nonzero"/><path fill="#6aa84f" d="m271.4762 291.7l621.8898 0l0 162.77164l-621.8898 0z" fill-rule="evenodd"/><path stroke="#6aa84f" stroke-width="1.0" stroke-linejoin="round" stroke-linecap="butt" d="m271.4762 291.7l621.8898 0l0 162.77164l-621.8898 0z" fill-rule="evenodd"/><path fill="#000000" fill-opacity="0.0" d="m279.79 302.55118l605.2599 0l0 141.07086l-605.2599 0z" fill-rule="evenodd"/><path fill="#ffffff" d="m305.55328 334.5585l32.984375 0l0 11.328125l-20.515625 0l0 22.109375l16.09375 0l0 11.328125l-16.09375 0l0 34.5625l-12.46875 0l0 -79.328125zm38.984924 0l18.484375 0q9.625 0 14.046875 4.484375q4.421875 4.46875 4.421875 13.765625l0 4.875q0 12.34375 -8.15625 15.625l0 0.234375q4.53125 1.359375 6.390625 5.5625q1.875 4.1875 1.875 11.203125l0 13.9375q0 3.40625 0.21875 5.5q0.234375 2.09375 1.140625 4.140625l-12.6875 0q-0.6875 -1.921875 -0.921875 -3.625q-0.21875 -1.703125 -0.21875 -6.125l0 -14.5q0 -5.4375 -1.765625 -7.59375q-1.75 -2.15625 -6.046875 -2.15625l-4.3125 0l0 34.0l-12.46875 0l0 -79.328125zm17.0 34.0q3.75 0 5.609375 -1.921875q1.875 -1.9375 1.875 -6.46875l0 -6.125q0 -4.296875 -1.53125 -6.21875q-1.53125 -1.9375 -4.8125 -1.9375l-5.671875 0l0 22.671875l4.53125 0zm28.671265 -34.0l34.0 0l0 11.328125l-21.53125 0l0 20.96875l17.109375 0l0 11.328125l-17.109375 0l0 24.375l21.53125 0l0 11.328125l-34.0 0l0 -79.328125zm41.138123 0l34.0 0l0 11.328125l-21.53125 0l0 20.96875l17.109375 0l0 11.328125l-17.109375 0l0 24.375l21.53125 0l0 11.328125l-34.0 0l0 -79.328125zm59.27066 0l19.046875 0q9.2969055 0 13.9375305 4.984375q4.640625 4.984375 4.640625 14.625l0 40.109375q0 9.640625 -4.640625 14.625q-4.640625 4.984375 -13.9375305 4.984375l-19.046875 0l0 -79.328125zm18.8125 68.0q3.0625305 0 4.7031555 -1.8125q1.65625 -1.8125 1.65625 -5.90625l0 -41.25q0 -4.078125 -1.65625 -5.890625q-1.640625 -1.8125 -4.7031555 -1.8125l-6.34375 0l0 56.671875l6.34375 0zm45.23001 12.46875q-9.1875 0 -14.0625 -5.21875q-4.875 -5.21875 -4.875 -14.734375l0 -41.703125q0 -9.515625 4.875 -14.734375q4.875 -5.21875 14.0625 -5.21875q9.171875 0 14.046875 5.21875q4.875 5.21875 4.875 14.734375l0 41.703125q0 9.515625 -4.875 14.734375q-4.875 5.21875 -14.046875 5.21875zm0 -11.34375q6.453125 0 6.453125 -7.8125l0 -43.296875q0 -7.8125 -6.453125 -7.8125q-6.46875 0 -6.46875 7.8125l0 43.296875q0 7.8125 6.46875 7.8125zm24.362549 -69.125l12.015625 0l5.546875 60.96875l0.234375 0l5.890625 -60.96875l13.59375 0l5.890625 60.96875l0.234375 0l5.546875 -60.96875l10.765625 0l-8.046875 79.328125l-15.515625 0l-5.671875 -53.484375l-0.234375 0l-5.65625 53.484375l-16.546875 0l-8.046875 -79.328125zm66.06134 0l15.640625 0l12.125 47.484375l0.234375 0l0 -47.484375l11.109375 0l0 79.328125l-12.8125 0l-14.953125 -57.90625l-0.234375 0l0 57.90625l-11.109375 0l0 -79.328125zm48.391174 0l12.46875 0l0 68.0l20.515625 0l0 11.328125l-32.984375 0l0 -79.328125zm56.562805 80.46875q-9.1875 0 -14.0625 -5.21875q-4.875 -5.21875 -4.875 -14.734375l0 -41.703125q0 -9.515625 4.875 -14.734375q4.875 -5.21875 14.0625 -5.21875q9.171875 0 14.046875 5.21875q4.875 5.21875 4.875 14.734375l0 41.703125q0 9.515625 -4.875 14.734375q-4.875 5.21875 -14.046875 5.21875zm0 -11.34375q6.453125 0 6.453125 -7.8125l0 -43.296875q0 -7.8125 -6.453125 -7.8125q-6.46875 0 -6.46875 7.8125l0 43.296875q0 7.8125 6.46875 7.8125zm36.71399 -69.125l16.890686 0l12.90625 79.328125l-12.453125 0l-2.265625 -15.75l0 0.21875l-14.171936 0l-2.265625 15.53125l-11.5625 0l12.921875 -79.328125zm13.593811 53.03125l-5.546875 -39.203125l-0.234375 0l-5.437561 39.203125l11.218811 0zm22.210205 -53.03125l19.046875 0q9.296875 0 13.9375 4.984375q4.640625 4.984375 4.640625 14.625l0 40.109375q0 9.640625 -4.640625 14.625q-4.640625 4.984375 -13.9375 4.984375l-19.046875 0l0 -79.328125zm18.8125 68.0q3.0625 0 4.703125 -1.8125q1.65625 -1.8125 1.65625 -5.90625l0 -41.25q0 -4.078125 -1.65625 -5.890625q-1.640625 -1.8125 -4.703125 -1.8125l-6.34375 0l0 56.671875l6.34375 0z" fill-rule="nonzero"/><path fill="#6aa84f" d="m75.61504 291.7l179.05511 0l0 162.77164l-179.05511 0z" fill-rule="evenodd"/><path stroke="#6aa84f" stroke-width="1.0" stroke-linejoin="round" stroke-linecap="butt" d="m75.61504 291.7l179.05511 0l0 162.77164l-179.05511 0z" fill-rule="evenodd"/><path fill="#ffffff" d="m201.48808 314.12598l0 58.960632l36.346466 0l-72.69292 58.960632l-72.69292 -58.960632l36.34645 0l0 -58.960632z" fill-rule="evenodd"/><path stroke="#ffffff" stroke-width="1.0" stroke-linejoin="round" stroke-linecap="butt" d="m201.48808 314.12598l0 58.960632l36.346466 0l-72.69292 58.960632l-72.69292 -58.960632l36.34645 0l0 -58.960632z" fill-rule="evenodd"/><path fill="#000000" fill-opacity="0.0" d="m169.05492 222.4326l621.8898 0l0 56.25197l-621.8898 0z" fill-rule="evenodd"/><path fill="#595959" d="m241.66707 274.2392q-5.0625 0 -7.71875 -2.875q-2.65625 -2.890625 -2.65625 -8.140625l0 -24.062485q0 -5.25 2.65625 -8.125q2.65625 -2.875 7.71875 -2.875q5.046875 0 7.703125 2.875q2.65625 2.875 2.65625 8.125l0 4.734375l-6.65625 0l0 -5.171875q0 -4.171875 -3.515625 -4.171875q-3.515625 0 -3.515625 4.171875l0 25.01561q0 4.09375 3.515625 4.09375q3.515625 0 3.515625 -4.09375l0 -6.84375l6.65625 0l0 6.328125q0 5.25 -2.65625 8.140625q-2.65625 2.875 -7.703125 2.875zm14.590103 -45.437485l7.03125 0l0 38.39061l11.59375 0l0 6.40625l-18.625 0l0 -44.79686zm22.01596 0l7.03125 0l0 44.79686l-7.03125 0l0 -44.79686zm22.209839 45.437485q-5.0625 0 -7.71875 -2.875q-2.65625 -2.890625 -2.65625 -8.140625l0 -24.062485q0 -5.25 2.65625 -8.125q2.65625 -2.875 7.71875 -2.875q5.046875 0 7.703125 2.875q2.65625 2.875 2.65625 8.125l0 4.734375l-6.65625 0l0 -5.171875q0 -4.171875 -3.515625 -4.171875q-3.515625 0 -3.515625 4.171875l0 25.01561q0 4.09375 3.515625 4.09375q3.515625 0 3.515625 -4.09375l0 -6.84375l6.65625 0l0 6.328125q0 5.25 -2.65625 8.140625q-2.65625 2.875 -7.703125 2.875zm14.590088 -45.437485l7.03125 0l0 18.875l8.96875 -18.875l7.03125 0l-8.375 16.4375l8.515625 28.35936l-7.359375 0l-5.953125 -19.968735l-2.828125 5.7031097l0 14.265625l-7.03125 0l0 -44.79686zm36.735962 0l7.03125 0l0 18.234375l7.5625 0l0 -18.234375l7.03125 0l0 44.79686l-7.03125 0l0 -20.156235l-7.5625 0l0 20.156235l-7.03125 0l0 -44.79686zm26.879944 0l19.203125 0l0 6.390625l-12.171875 0l0 11.84375l9.671875 0l0 6.40625l-9.671875 0l0 13.749985l12.171875 0l0 6.40625l-19.203125 0l0 -44.79686zm23.231964 0l10.4375 0q5.4375 0 7.921875 2.53125q2.5 2.515625 2.5 7.765625l0 2.75q0 6.984375 -4.609375 8.84375l0 0.125q2.5625 0.765625 3.609375 3.140625q1.0625 2.3593597 1.0625 6.3281097l0 7.875q0 1.921875 0.125 3.109375q0.140625 1.171875 0.640625 2.328125l-7.15625 0q-0.390625 -1.09375 -0.515625 -2.046875q-0.125 -0.96875 -0.125 -3.453125l0 -8.203125q0 -3.0625 -1.0 -4.2812347q-0.984375 -1.21875 -3.421875 -1.21875l-2.4375 0l0 19.20311l-7.03125 0l0 -44.79686zm9.59375 19.203125q2.125 0 3.171875 -1.09375q1.0625 -1.09375 1.0625 -3.65625l0 -3.453125q0 -2.421875 -0.875 -3.515625q-0.859375 -1.09375 -2.71875 -1.09375l-3.203125 0l0 12.8125l2.5625 0zm16.198212 -19.203125l19.203125 0l0 6.390625l-12.171875 0l0 11.84375l9.671875 0l0 6.40625l-9.671875 0l0 13.749985l12.171875 0l0 6.40625l-19.203125 0l0 -44.79686zm38.971985 6.390625l-7.359375 0l0 -6.390625l21.765625 0l0 6.390625l-7.359375 0l0 38.406235l-7.046875 0l0 -38.406235zm27.711823 39.04686q-5.1875 0 -7.9375 -2.9375q-2.75 -2.953125 -2.75 -8.328125l0 -23.54686q0 -5.375 2.75 -8.3125q2.75 -2.953125 7.9375 -2.953125q5.1875 0 7.9375 2.953125q2.75 2.9375 2.75 8.3125l0 23.54686q0 5.375 -2.75 8.328125q-2.75 2.9375 -7.9375 2.9375zm0 -6.40625q3.65625 0 3.65625 -4.40625l0 -24.45311q0 -4.421875 -3.65625 -4.421875q-3.640625 0 -3.640625 4.421875l0 24.45311q0 4.40625 3.640625 4.40625zm25.66806 -39.031235l10.75 0q5.25 0 7.875 2.8125q2.625 2.8125 2.625 8.25l0 22.656235q0 5.453125 -2.625 8.265625q-2.625 2.8125 -7.875 2.8125l-10.75 0l0 -44.79686zm10.625 38.39061q1.71875 0 2.640625 -1.015625q0.9375 -1.03125 0.9375 -3.328125l0 -23.29686q0 -2.3125 -0.9375 -3.328125q-0.921875 -1.03125 -2.640625 -1.03125l-3.59375 0l0 31.999985l3.59375 0zm25.530823 7.046875q-5.1875 0 -7.9375 -2.9375q-2.75 -2.953125 -2.75 -8.328125l0 -23.54686q0 -5.375 2.75 -8.3125q2.75 -2.953125 7.9375 -2.953125q5.1875 0 7.9375 2.953125q2.75 2.9375 2.75 8.3125l0 23.54686q0 5.375 -2.75 8.328125q-2.75 2.9375 -7.9375 2.9375zm0 -6.40625q3.65625 0 3.65625 -4.40625l0 -24.45311q0 -4.421875 -3.65625 -4.421875q-3.640625 0 -3.640625 4.421875l0 24.45311q0 4.40625 3.640625 4.40625zm13.756226 -39.031235l6.796875 0l3.125 34.42186l0.140625 0l3.328125 -34.42186l7.671875 0l3.328125 34.42186l0.125 0l3.140625 -34.42186l6.078125 0l-4.546875 44.79686l-8.765625 0l-3.203125 -30.20311l-0.125 0l-3.203125 30.20311l-9.34375 0l-4.546875 -44.79686zm37.319824 0l8.828125 0l6.84375 26.8125l0.140625 0l0 -26.8125l6.265625 0l0 44.79686l-7.234375 0l-8.4375 -32.70311l-0.140625 0l0 32.70311l-6.265625 0l0 -44.79686zm27.327942 0l7.03125 0l0 38.39061l11.59375 0l0 6.40625l-18.625 0l0 -44.79686zm31.931824 45.437485q-5.1875 0 -7.9375 -2.9375q-2.75 -2.953125 -2.75 -8.328125l0 -23.54686q0 -5.375 2.75 -8.3125q2.75 -2.953125 7.9375 -2.953125q5.1875 0 7.9375 2.953125q2.75 2.9375 2.75 8.3125l0 23.54686q0 5.375 -2.75 8.328125q-2.75 2.9375 -7.9375 2.9375zm0 -6.40625q3.65625 0 3.65625 -4.40625l0 -24.45311q0 -4.421875 -3.65625 -4.421875q-3.640625 0 -3.640625 4.421875l0 24.45311q0 4.40625 3.640625 4.40625zm20.73761 -39.031235l9.53125 0l7.296875 44.79686l-7.03125 0l-1.28125 -8.890625l0 0.125l-8.0 0l-1.28125 8.765625l-6.53125 0l7.296875 -44.79686zm7.6875 29.95311l-3.140625 -22.14061l-0.125 0l-3.078125 22.14061l6.34375 0zm12.539001 -29.95311l10.75 0q5.25 0 7.875 2.8125q2.625 2.8125 2.625 8.25l0 22.656235q0 5.453125 -2.625 8.265625q-2.625 2.8125 -7.875 2.8125l-10.75 0l0 -44.79686zm10.625 38.39061q1.71875 0 2.640625 -1.015625q0.9375 -1.03125 0.9375 -3.328125l0 -23.29686q0 -2.3125 -0.9375 -3.328125q-0.921875 -1.03125 -2.640625 -1.03125l-3.59375 0l0 31.999985l3.59375 0z" fill-rule="nonzero"/></g></svg>